<?xml version="1.0" encoding="UTF-8"?>
<svg id="Livello_2" data-name="Livello 2" xmlns="http://www.w3.org/2000/svg" viewBox="0 0 923.62 298.23">
  <defs>
    <style>
      .cls-1 {
        fill: #fff;
      }
    </style>
  </defs>
  <g id="Livello_1-2" data-name="Livello 1">
    <g>
      <g>
        <path class="cls-1" d="m588.98,294.71c.32,0,.44-.04.47-.06,0,0,.04-.14.04-.45l-16.25-263.6c-.6-9.69-8.67-17.28-18.38-17.28h-67.33c-1.35,0-2.48,1.06-2.56,2.41l-17.17,278.55c0,.25.05.36.07.39h0s.15.04.45.04h42.58c.32,0,.44-.04.47-.06,0,0,.04-.14.04-.45l3.61-66.5h27.24l3.61,66.43c0,.38.05.51.07.54h0s.15.04.45.04h42.58Zm-71.54-80.87l.05-1.31,6.4-159.14h9.52l.05,1.21,6.69,159.25h-22.72Z"/>
        <path class="cls-1" d="m614.24,294.71h68.38c.28,0,.51-.23.51-.51v-39.04c0-.28-.23-.51-.51-.51h-42.08V13.84c0-.28-.23-.51-.51-.51h-42.59c-.28,0-.51.23-.51.51v263.57c0,9.54,7.77,17.31,17.31,17.31Z"/>
        <path class="cls-1" d="m758.86,294.71h42.23c.37,0,.51-.14.51-.51v-165.02c0-.37-.14-.51-.51-.51h-53.23c-.37,0-.52.14-.52.51v42.59c0,.37.15.51.52.51h10.13v80.6h-23.82V53.39h23.82v58.05c0,.37.14.51.51.51h42.59c.37,0,.51-.14.51-.51v-47.2c0-30.92-12.04-50.91-30.68-50.91h-49.69c-18.64,0-30.68,19.98-30.68,50.91v184.9c0,21.6,4.64,47.36,26.77,47.36,20.69,0,27.04-21.14,30.45-32.5l.91-2.99h9.29v33.2c0,.3,0,.51.87.51Z"/>
        <path class="cls-1" d="m889.39,13.33h-42.59c-24.63,0-34.22,15.57-34.22,55.52v170.35c0,39.95,9.6,55.52,34.22,55.52h42.59c24.63,0,34.23-15.57,34.23-55.52V68.84c0-39.95-9.6-55.52-34.23-55.52Zm-12.28,241.33h-15.16l-.02-1.24-3.42-205.13h22.91l-4.31,206.37Z"/>
      </g>
      <path class="cls-1" d="m361.77,101.38c-9.63-7.23-18.85-15.04-28.64-22.03-21.39-15.27-42.81-30.51-64.64-45.13-16.26-10.9-33-21.08-50-31.73-3.9-2.44-8.67-3.14-13.08-1.84-1.65.48-3.19,1.03-4.6,1.8-15.12,8.31-30.5,16.27-44.97,25.61-35.11,22.67-66.43,50.1-97.18,78.3-8.79,8.06-10.15,16.21-7.02,26.31,6.55,21.17,13.04,42.36,20.1,63.36,8.39,24.96,20.78,48.12,32.4,71.68,6.53,13.24,16.35,28.2,29.38,30.12.81.12,16.71.22,17.53.33,12.59,1.65,16.22-25.49,27.59-30.93,19.37-9.27,40.5-5.84,60.33-2.51,17.8,2.99,20.11,32.68,37.88,32.42,5.48-.08,20.93-1.83,26.12-3.51,2.61-.84,5.64-2.89,6.82-5.23,6.62-13.21,13.51-36.42,18.84-50.17,8.01-20.64,15.46-41.54,21.95-62.7,6.1-19.87,10.67-40.22,15.87-60.37,1.43-5.56.17-10.15-4.68-13.79Zm-195.04,53.39c-11.47,0-20.76-9.3-20.76-20.76s9.3-20.76,20.76-20.76,20.76,9.3,20.76,20.76-9.3,20.76-20.76,20.76Zm91.7,0c-11.47,0-20.76-9.3-20.76-20.76s9.3-20.76,20.76-20.76,20.76,9.3,20.76,20.76-9.3,20.76-20.76,20.76Zm115.37,12.72c7.84-8.3,19.04-8.82,22.81.53,3.1,7.71-2.83,14.93-.11,23.25,4.16,12.71,20.62,15.36,20.36,32.17-.35,22.26-20.4,30.41-41.54,20.89-20.43-9.19-31.44-29.08-24-47.3,5.25-12.86,22.49-29.54,22.49-29.54ZM55.07,239.96c7.26-6.32,12.89-13.98,13.21-21.48.62-14.47-12.8-34.23-23.14-43.44-6.2-5.53-13.86-9.52-22.27-4.6-10.32,6.04-6.14,12.11-2.66,21.63.2.53.42,1.06.63,1.59C28.47,211.88-1.72,210.94.08,234.16c1.86,24.06,16.77,24.4,32.78,19,6.72-2.26,15.22-7.11,22.21-13.2Z"/>
    </g>
  </g>
</svg>