<?xml version="1.0" encoding="UTF-8"?>
<svg id="Livello_2" data-name="Livello 2" xmlns="http://www.w3.org/2000/svg" viewBox="0 0 924.88 298.23">
  <g id="Livello_1-2" data-name="Livello 1">
    <g>
      <path d="m361.77,101.38c-9.63-7.23-18.85-15.04-28.64-22.03-21.39-15.27-42.81-30.51-64.64-45.13-16.26-10.9-33-21.08-50-31.73-3.9-2.44-8.67-3.14-13.08-1.84-1.65.48-3.19,1.03-4.6,1.8-15.12,8.31-30.5,16.27-44.97,25.61-35.11,22.67-66.43,50.1-97.18,78.3-8.79,8.06-10.15,16.21-7.02,26.31,6.55,21.17,13.04,42.36,20.1,63.36,8.39,24.96,20.78,48.12,32.4,71.68,6.53,13.24,16.35,28.2,29.38,30.12.81.12,16.71.22,17.53.33,12.59,1.65,16.22-25.49,27.59-30.93,19.37-9.27,40.5-5.84,60.33-2.51,17.8,2.99,20.11,32.68,37.88,32.42,5.48-.08,20.93-1.83,26.12-3.51,2.61-.84,5.64-2.89,6.82-5.23,6.62-13.21,13.51-36.42,18.84-50.17,8.01-20.64,15.46-41.54,21.95-62.7,6.1-19.87,10.67-40.22,15.87-60.37,1.43-5.56.17-10.15-4.68-13.79Zm-195.04,53.39c-11.47,0-20.76-9.3-20.76-20.76s9.3-20.76,20.76-20.76,20.76,9.3,20.76,20.76-9.3,20.76-20.76,20.76Zm91.7,0c-11.47,0-20.76-9.3-20.76-20.76s9.3-20.76,20.76-20.76,20.76,9.3,20.76,20.76-9.3,20.76-20.76,20.76Zm115.37,12.72c7.84-8.3,19.04-8.82,22.81.53,3.1,7.71-2.83,14.93-.11,23.25,4.16,12.71,20.62,15.36,20.36,32.17-.35,22.26-20.4,30.41-41.54,20.89-20.43-9.19-31.44-29.08-24-47.3,5.25-12.86,22.49-29.54,22.49-29.54ZM55.07,239.96c7.26-6.32,12.89-13.98,13.21-21.48.62-14.47-12.8-34.23-23.14-43.44-6.2-5.53-13.86-9.52-22.27-4.6-10.32,6.04-6.14,12.11-2.66,21.63.2.53.42,1.06.63,1.59C28.47,211.88-1.72,210.94.08,234.16c1.86,24.06,16.77,24.4,32.78,19,6.72-2.26,15.22-7.11,22.21-13.2Z"/>
      <g>
        <path d="m516.23,229.02l-3.55,65.24c0,1.42-.71,1.77-1.78,1.77h-42.58c-1.06,0-1.78-.36-1.78-1.77L483.72,15.71c.12-2.02,1.8-3.59,3.82-3.59h67.33c10.4,0,19,8.09,19.64,18.47l16.25,263.67c0,1.42-.71,1.77-1.78,1.77h-42.58c-1.06,0-1.78-.36-1.78-1.77l-3.55-65.24h-24.84Zm22.61-16.38l-6.64-157.94h-7.1l-6.35,157.94h20.09Z"/>
        <path d="m614.24,296.03c-10.26,0-18.57-8.31-18.57-18.57V13.9c0-.98.79-1.77,1.77-1.77h42.59c.98,0,1.77.79,1.77,1.77v239.55h40.81c.98,0,1.77.79,1.77,1.77v39.04c0,.98-.79,1.77-1.77,1.77h-68.38Z"/>
        <path d="m802.86,64.29v47.2c0,1.06-.71,1.77-1.77,1.77h-42.59c-1.06,0-1.77-.71-1.77-1.77v-56.78h-21.3v196.97h21.3v-78.08h-8.87c-1.06,0-1.78-.71-1.78-1.77v-42.59c0-1.06.71-1.77,1.78-1.77h53.23c1.06,0,1.77.71,1.77,1.77v165.03c0,1.06-.71,1.77-1.77,1.77h-42.23c-1.06,0-2.13-.36-2.13-1.77v-31.94h-7.1c-3.19,10.29-9.23,35.49-32.3,35.49-18.81,0-28.03-17.74-28.03-48.62V64.29c0-28.75,11-52.17,31.94-52.17h49.69c20.94,0,31.94,23.42,31.94,52.17Z"/>
        <path d="m924.88,68.9v170.35c0,35.49-7.1,56.78-35.49,56.78h-42.59c-28.39,0-35.49-21.29-35.49-56.78V68.9c0-35.49,7.1-56.78,35.49-56.78h42.59c28.39,0,35.49,21.29,35.49,56.78Zm-44.75-19.31h-20.34l3.4,203.85h12.69l4.26-203.85Z"/>
      </g>
    </g>
  </g>
</svg>